HIERARCHY
ROOT Hips
{
	OFFSET 0.000000 0.000000 0.000000
	CHANNELS 6 Xposition Yposition Zposition Zrotation Yrotation Xrotation 
	JOINT LeftUpLeg_virtual
	{
		OFFSET 0.000000 0.000000 0.000000
		CHANNELS 3 Zrotation Yrotation Xrotation
		JOINT LeftUpLeg
		{
			OFFSET 10.205400 -3.823500 0.155100
			CHANNELS 3 Zrotation Yrotation Xrotation
			JOINT LeftLeg
			{
				OFFSET 0.708757 -12.982077 0.567790
				CHANNELS 3 Zrotation Yrotation Xrotation
				JOINT LeftFoot
				{
					OFFSET -0.708756 -10.717838 -2.184338
					CHANNELS 3 Zrotation Yrotation Xrotation
					JOINT LeftToeBase
					{
						OFFSET 0.108149 -7.191104 7.560241
						CHANNELS 3 Zrotation Yrotation Xrotation
						End Site
						{
							OFFSET 0.000000 0.000000 0.000000
						}
					}
				}
			}
		}
	}
	JOINT RightUpLeg_virtual
	{
		OFFSET 0.000000 0.000000 0.000000
		CHANNELS 3 Zrotation Yrotation Xrotation
		JOINT RightUpLeg
		{
			OFFSET -10.205400 -3.823500 0.005500
			CHANNELS 3 Zrotation Yrotation Xrotation
			JOINT RightLeg
			{
				OFFSET -0.708756 -12.982134 0.610632
				CHANNELS 3 Zrotation Yrotation Xrotation
				JOINT RightFoot
				{
					OFFSET 0.708754 -10.717769 -1.945823
					CHANNELS 3 Zrotation Yrotation Xrotation
					JOINT RightToeBase
					{
						OFFSET -0.108140 -7.191069 7.372968
						CHANNELS 3 Zrotation Yrotation Xrotation
						End Site
						{
							OFFSET 0.000000 0.000000 0.000000
						}
					}
				}
			}
		}
	}
	JOINT Spine_virtual
	{
		OFFSET 0.000000 0.000000 0.000000
		CHANNELS 3 Zrotation Yrotation Xrotation
		JOINT Spine
		{
			OFFSET 0.000000 6.876099 0.125700
			CHANNELS 3 Zrotation Yrotation Xrotation
			JOINT Spine1
			{
				OFFSET 0.000000 8.022060 0.146608
				CHANNELS 3 Zrotation Yrotation Xrotation
				JOINT Spine2
				{
					OFFSET 0.000000 9.168068 0.167552
					CHANNELS 3 Zrotation Yrotation Xrotation
					JOINT Neck_virtual
					{
						OFFSET 0.000000 0.000000 0.000000
						CHANNELS 3 Zrotation Yrotation Xrotation
						JOINT Neck
						{
							OFFSET 0.000000 10.314075 0.188496
							CHANNELS 3 Zrotation Yrotation Xrotation
							JOINT Head
							{
								OFFSET 0.000000 7.643700 -2.377400
								CHANNELS 3 Zrotation Yrotation Xrotation
								End Site
								{
									OFFSET 0.000000 0.000000 0.000000
								}
							}
						}
					}
					JOINT LeftShoulder_virtual
					{
						OFFSET 0.000000 0.000000 0.000000
						CHANNELS 3 Zrotation Yrotation Xrotation
						JOINT LeftShoulder
						{
							OFFSET 4.392200 8.824978 0.174984
							CHANNELS 3 Zrotation Yrotation Xrotation
							JOINT LeftArm
							{
								OFFSET 8.771219 -2.981674 -0.026999
								CHANNELS 3 Zrotation Yrotation Xrotation
								JOINT LeftForeArm
								{
									OFFSET 8.512804 0.000000 -0.000000
									CHANNELS 3 Zrotation Yrotation Xrotation
									JOINT LeftHand
									{
										OFFSET 18.484802 0.000000 -0.000000
										CHANNELS 3 Zrotation Yrotation Xrotation
										End Site
										{
											OFFSET 0.000000 0.000000 0.000000
										}
									}
								}
							}
						}
					}
					JOINT RightShoulder_virtual
					{
						OFFSET 0.000000 0.000000 0.000000
						CHANNELS 3 Zrotation Yrotation Xrotation
						JOINT RightShoulder
						{
							OFFSET -4.392200 8.824993 0.141379
							CHANNELS 3 Zrotation Yrotation Xrotation
							JOINT RightArm
							{
								OFFSET -8.771282 -2.981682 -0.094208
								CHANNELS 3 Zrotation Yrotation Xrotation
								JOINT RightForeArm
								{
									OFFSET -8.494598 0.000000 0.000000
									CHANNELS 3 Zrotation Yrotation Xrotation
									JOINT RightHand
									{
										OFFSET -18.483803 0.000000 0.000001
										CHANNELS 3 Zrotation Yrotation Xrotation
										End Site
										{
											OFFSET 0.000000 0.000000 0.000000
										}
									}
								}
							}
						}
					}
				}
			}
		}
	}
}
MOTION
Frames: 9
Frame Time: 0.033333
-0.625836 36.541637 20.896606 179.970198 2.381925 -179.966359 -2.646971 -3.416919 9.357282 -9.834191 6.063822 -17.064177 13.424891 4.887243 17.064528 -2.463078 -3.893609 9.672280 0.000000 0.000000 0.000000 2.220893 -1.126858 6.519284 -5.315143 3.455618 -12.307233 -8.209396 2.434086 16.661666 10.654593 3.840235 9.959351 0.000000 0.000000 0.000000 1.199753 0.192321 -2.237615 -5.188805 3.413607 -5.168966 0.407269 -3.272003 2.345077 0.025758 0.019232 0.037375 -0.168781 -1.459229 4.407567 0.519407 -1.714915 1.362197 0.000000 0.000000 0.000000 1.185278 -0.610667 1.830036 3.281235 -0.818231 -4.110060 -10.503967 29.244995 -38.142857 -0.125956 -42.726009 -3.618926 0.000000 0.000000 0.000000 -2.124528 0.016479 1.268741 6.140348 -8.892696 -7.618738 17.916454 -28.473370 -37.076920 -2.010341 35.464405 -3.963778 0.000000 0.000000 0.000000 
-0.611702 36.539474 20.882483 179.950541 2.387236 -179.882512 -2.602685 -3.536806 9.448086 -9.807769 5.794025 -16.954782 13.558304 4.571835 17.317639 -2.330438 -3.795135 9.261772 0.000000 0.000000 0.000000 2.196874 -0.982672 6.528620 -5.262061 3.324739 -12.287982 -8.253240 2.135254 16.864914 10.472065 3.600515 9.826378 0.000000 0.000000 0.000000 1.171712 0.187234 -2.271725 -5.225413 3.387060 -5.210790 0.392392 -3.285329 2.330776 0.014777 0.009202 0.041529 -0.163934 -1.468638 4.440429 0.520290 -1.706362 1.342433 0.000000 0.000000 0.000000 1.201809 -0.586130 1.834756 3.272415 -0.817692 -4.060212 -10.467260 29.225099 -38.112094 -0.095750 -42.698248 -3.653332 0.000000 0.000000 0.000000 -2.113375 0.063234 1.324537 6.156376 -8.849935 -7.564277 17.966447 -28.503032 -37.056399 -2.070842 35.430353 -4.039683 0.000000 0.000000 0.000000 
-0.597133 36.542572 20.865513 179.960144 2.387561 -179.937973 -2.571849 -3.536953 9.511918 -9.796995 5.742695 -16.922518 13.590471 4.548865 17.264942 -2.325644 -3.783647 9.391732 0.000000 0.000000 0.000000 2.208186 -1.002348 6.589559 -5.225793 3.317089 -12.263634 -8.288567 2.101628 16.872992 10.448320 3.648619 9.898202 0.000000 0.000000 0.000000 1.166021 0.198900 -2.209053 -5.236906 3.386284 -5.201759 0.398328 -3.274253 2.335295 0.027058 0.020465 0.045252 -0.181401 -1.482585 4.407507 0.477585 -1.720598 1.365036 0.000000 0.000000 0.000000 1.188606 -0.603202 1.812887 3.312277 -0.835130 -4.164765 -10.339887 29.173784 -38.170580 -0.211730 -42.701199 -3.537732 0.000000 0.000000 0.000000 -2.114001 0.029867 1.265842 6.164845 -8.909681 -7.611938 17.950929 -28.604933 -37.016968 -2.042096 35.466386 -3.963722 0.000000 0.000000 0.000000 
-0.585394 36.540882 20.850702 179.954448 2.483676 -179.885053 -2.563190 -3.507777 9.512813 -9.775089 5.761463 -16.956298 13.563475 4.552197 17.283923 -2.322975 -3.803157 9.393166 0.000000 0.000000 0.000000 2.215072 -0.912652 6.559032 -5.223012 3.367631 -12.298851 -8.259658 2.082807 16.937363 10.419777 3.626110 9.826801 0.000000 0.000000 0.000000 1.177990 0.022176 -2.222648 -5.247117 3.382680 -5.244895 0.397369 -3.261095 2.332022 0.019276 0.023803 0.091155 -0.166112 -1.385539 4.371491 0.482244 -1.652658 1.371479 0.000000 0.000000 0.000000 1.209668 -0.444999 1.755056 3.344959 -0.846204 -4.001650 -10.254976 29.220990 -38.081426 -0.139186 -42.680776 -3.599413 0.000000 0.000000 0.000000 -2.098520 0.120668 1.291164 6.238305 -8.775526 -7.640678 18.031899 -28.565526 -37.086541 -2.076531 35.382166 -4.029322 0.000000 0.000000 0.000000 
-0.578564 36.543114 20.839958 179.907879 2.419296 -179.921403 -2.605230 -3.597640 9.530774 -9.764345 5.756221 -16.924763 13.551515 4.530682 17.262313 -2.353103 -3.812058 9.466221 0.000000 0.000000 0.000000 2.182321 -1.028071 6.607797 -5.215660 3.401081 -12.277029 -8.275679 2.163457 16.961725 10.366193 3.593310 9.889339 0.000000 0.000000 0.000000 1.151232 0.175399 -2.156713 -5.289310 3.358961 -5.225716 0.329011 -3.250295 2.344660 0.057850 0.034253 0.043836 -0.140797 -1.522350 4.402509 0.398142 -1.659221 1.381774 0.000000 0.000000 0.000000 1.229442 -0.634399 1.803091 3.318521 -0.857736 -4.088031 -10.062533 29.148126 -38.000051 -0.159389 -42.582538 -3.577894 0.000000 0.000000 0.000000 -2.080545 0.023695 1.276371 6.265659 -8.868198 -7.515821 18.074868 -28.599643 -37.239646 -2.056541 35.383911 -3.959280 0.000000 0.000000 0.000000 
-0.575934 36.542946 20.833632 179.875395 2.440591 -179.910912 -2.624093 -3.644199 9.517726 -9.740577 5.734175 -16.918609 13.514903 4.643544 17.279141 -2.354567 -3.824656 9.477120 0.000000 0.000000 0.000000 2.142857 -1.049143 6.584307 -5.231393 3.485517 -12.293396 -8.252865 2.161037 16.993181 10.319048 3.629091 9.883863 0.000000 0.000000 0.000000 1.118884 0.133503 -2.156615 -5.295805 3.332821 -5.255369 0.374810 -3.246253 2.341412 0.004256 0.023925 0.042398 -0.140419 -1.512645 4.385299 0.354995 -1.620998 1.376625 0.000000 0.000000 0.000000 1.248317 -0.599401 1.793993 3.429114 -0.797503 -4.082372 -9.974617 29.169163 -38.008493 -0.181574 -42.572262 -3.554540 0.000000 0.000000 0.000000 -2.054255 0.005189 1.306878 6.341118 -8.843963 -7.737615 18.010172 -28.611826 -37.182816 -2.010432 35.399962 -3.885891 0.000000 0.000000 0.000000 
-0.573672 36.544109 20.829666 179.919764 2.560385 -179.848088 -2.571445 -3.635428 9.488360 -9.749082 5.841656 -16.942933 13.501123 4.623575 17.276921 -2.394835 -3.855715 9.491251 0.000000 0.000000 0.000000 2.220637 -0.998459 6.516664 -5.232167 3.568058 -12.331190 -8.251523 2.210037 17.031232 10.272359 3.620089 9.839807 0.000000 0.000000 0.000000 1.156554 0.023940 -2.181415 -5.250637 3.387240 -5.295826 0.412678 -3.176352 2.321663 0.031383 0.090385 0.022391 -0.174129 -1.495766 4.411806 0.292543 -1.607675 1.381200 0.000000 0.000000 0.000000 1.222565 -0.602781 1.876700 3.471839 -0.781930 -4.202127 -9.727399 29.115976 -37.844282 -0.217239 -42.513208 -3.467668 0.000000 0.000000 0.000000 -2.098233 0.022054 1.287786 6.417049 -8.797268 -7.533423 18.065301 -28.628104 -37.272793 -2.128988 35.393159 -4.018480 0.000000 0.000000 0.000000 
-0.571056 36.546429 20.824190 179.976810 2.526781 -179.816505 -2.509282 -3.764580 9.477890 -9.724979 5.840487 -16.939813 13.442455 4.659468 17.317325 -2.256877 -3.810226 9.511512 0.000000 0.000000 0.000000 2.299685 -1.124418 6.498967 -5.253379 3.637988 -12.325487 -8.264356 2.341051 16.981326 10.229073 3.614616 9.939956 0.000000 0.000000 0.000000 1.197162 0.058883 -2.197296 -5.211032 3.262915 -5.299945 0.393405 -3.248912 2.355688 -0.028377 -0.001984 0.011790 -0.112319 -1.446535 4.403404 0.293352 -1.541014 1.350415 0.000000 0.000000 0.000000 1.265223 -0.549719 1.812453 3.532154 -0.714783 -4.004464 -9.574435 29.198055 -37.742311 -0.249518 -42.490498 -3.405782 0.000000 0.000000 0.000000 -2.038793 0.107646 1.337262 6.479984 -8.662892 -7.701674 17.975630 -28.628203 -37.192757 -2.176481 35.489318 -4.069007 0.000000 0.000000 0.000000 
-0.570512 36.543465 20.823193 -179.908576 2.575926 -179.875217 -2.368004 -3.808225 9.505255 -9.768185 5.861117 -16.913271 13.492011 4.663343 17.311050 -2.302642 -3.803633 9.628886 0.000000 0.000000 0.000000 2.401765 -1.201599 6.478536 -5.244530 3.710048 -12.276272 -8.286896 2.310550 17.020845 10.191644 3.783311 9.914601 0.000000 0.000000 0.000000 1.255556 0.018452 -2.133964 -5.139635 3.246703 -5.259300 0.427347 -3.229814 2.371399 0.008868 -0.005178 0.043023 -0.166524 -1.369758 4.395802 0.247495 -1.543877 1.448155 0.000000 0.000000 0.000000 1.228828 -0.536924 1.817726 3.599643 -0.724045 -3.910263 -9.407815 29.157313 -37.480349 -0.105773 -42.428824 -3.446100 0.000000 0.000000 0.000000 -2.104415 0.144579 1.315291 6.534937 -8.612532 -7.554661 18.026782 -28.687740 -37.608637 -2.026373 35.623576 -3.824932 0.000000 0.000000 0.000000 
